<svg viewBox="0 0 14 14" xmlns="http://www.w3.org/2000/svg"><g><path d="m 1.1722064,3.6439315 c 0,0 1.3314832,2.0521368 1.8429445,3.163191 C 3.0666624,6.6087961 3.1078648,6.4079344 3.1385925,6.2053447 4.2764681,6.0642072 5.4312377,6.2390408 6.4763376,6.7106838 5.5448929,6.0400429 4.8161677,5.1257996 4.3701153,4.068262 4.5302308,3.9401241 4.6837645,3.8039716 4.8301282,3.6603261 3.6131058,3.7719329 1.1722064,3.6439315 1.1722064,3.6439315 Z m 4.2539132,2.456295 C 4.6905814,5.7889832 3.9084002,5.6022375 3.1115896,5.5476324 3.0881051,5.2403913 3.023226,4.9377304 2.9187122,4.6478589 3.2221035,4.5947115 3.5169603,4.5009672 3.7953404,4.3691509 4.2393871,5.0324497 4.7904721,5.6174275 5.4261196,6.1002265 Z M 1.1722064,10.356068 c 0,0 1.3314832,-2.0521363 1.8429445,-3.1631905 0.051512,0.1983264 0.092714,0.3991881 0.1234416,0.6017778 C 4.2764681,7.9357928 5.4312377,7.7609592 6.4763376,7.2893162 5.5448929,7.9599571 4.8161677,8.8742004 4.3701153,9.931738 c 0.1601155,0.128138 0.3136492,0.26429 0.4600129,0.407936 -1.2170224,-0.111607 -3.6579218,0.01639 -3.6579218,0.01639 z M 5.4261196,7.8997735 C 4.6905814,8.2110168 3.9084002,8.3977625 3.1115896,8.4523676 3.0881051,8.7596087 3.023226,9.0622696 2.9187122,9.3521411 3.2221035,9.4052885 3.5169603,9.4990328 3.7953404,9.6308491 4.2393871,8.9675503 4.7904721,8.3825725 5.4261196,7.8997735 Z M 7,13.750712 c 0,0 -1.1095948,-2.177772 -1.8149773,-3.175728 0.1976816,0.05419 0.3924268,0.118564 0.5834545,0.192878 C 6.4599252,9.8536125 6.8860335,8.7664856 7,7.6258875 7.1143308,8.7666918 7.5403928,9.8540339 8.2315228,10.768826 8.4210223,10.69481 8.6141468,10.630437 8.8101553,10.575949 8.1064951,11.573794 7,13.750712 7,13.750712 Z M 7,8.8381226 C 6.90338,9.6315573 6.6752323,10.403349 6.3249288,11.121792 c 0.253307,0.17541 0.4819721,0.383965 0.6798931,0.620101 C 7.2029048,11.505562 7.431916,11.296987 7.6856795,11.121792 7.3320239,10.403875 7.1002992,9.6321111 7,8.8381226 Z m 5.827794,1.5179454 c 0,0 -1.331093,-2.0523394 -1.842945,-3.1631905 -0.05108,0.1983679 -0.09196,0.3992241 -0.122477,0.6017778 C 9.7241817,7.9358226 8.5690942,7.7609914 7.5236624,7.2893162 8.4552201,7.9600811 9.1842292,8.8742618 9.6308491,9.931738 c -0.16033,0.127884 -0.3138764,0.264047 -0.4600129,0.407936 1.2166978,-0.111646 3.6569578,0.01639 3.6569578,0.01639 z M 8.5738804,7.8997735 c 0.7355606,0.311175 1.5177296,0.497918 2.3145296,0.5525941 0.02348,0.3072411 0.08837,0.609902 0.192878,0.8997735 -0.303713,0.053098 -0.598895,0.1468424 -0.877593,0.278708 C 9.7599386,8.9676269 9.2091838,8.3826536 8.5738804,7.8997735 Z m 4.2539136,-4.255842 c 0,0 -1.331093,2.0523399 -1.842945,3.163191 C 10.933767,6.6087546 10.892888,6.4078984 10.862372,6.2053447 9.7241817,6.0641774 8.5690942,6.2390086 7.5236624,6.7106838 8.4552201,6.0399189 9.1842292,5.1257382 9.6308491,4.068262 9.4705191,3.9403788 9.3169727,3.8042149 9.1708362,3.6603261 10.387534,3.771972 12.827794,3.6439315 12.827794,3.6439315 Z M 8.5738804,6.1002265 C 9.309441,5.7890515 10.09161,5.6023085 10.88841,5.5476324 10.911893,5.2403913 10.976777,4.9377304 11.081288,4.6478589 10.777575,4.5947611 10.482393,4.5010165 10.203695,4.3691509 9.7599386,5.0323731 9.2091838,5.6173464 8.5738804,6.1002265 Z M 7,0.24928759 c 0,0 -1.1095948,2.17777261 -1.8149773,3.17572801 C 5.3827043,3.3708301 5.5774495,3.3064516 5.7684772,3.2321381 6.4599252,4.1463875 6.8860335,5.2335144 7,6.3741125 7.1143308,5.2333082 7.5403928,4.1459661 8.2315228,3.2311737 8.4210223,3.3051885 8.6141468,3.3695635 8.8101553,3.4240512 8.1064951,2.4262061 7,0.24928759 7,0.24928759 Z M 7,5.1618774 C 6.9033799,4.3684427 6.6752323,3.5966518 6.3249288,2.8782079 6.5782358,2.7027983 6.8069009,2.4942429 7.0048219,2.2581067 7.2029048,2.4944378 7.431916,2.703013 7.6856795,2.8782079 7.3320239,3.5961252 7.1002992,4.3678889 7,5.1618774 Z M 8.1032593,8.0145356 8.0347878,8.8024402 7.3172835,8.4677978 H 6.6798234 L 5.9632835,8.8024402 5.8977051,8.0145356 5.5775285,7.4580841 4.9294601,7.0038575 5.5775285,6.5505954 5.8977051,5.9980014 5.9661766,5.2100968 6.6827165,5.5447393 H 7.3230698 L 8.0405741,5.2100968 8.1090456,5.9980014 8.4292223,6.5486667 9.0772906,7.0019288 8.4292223,7.4561553 Z" style="fill:#55ddff;stroke:#55ddff;stroke-width:0.3;stroke-miterlimit:4;stroke-dasharray:none;stroke-opacity:1;fill-rule:evenodd"></path></g></svg>