<svg viewBox="0 0 14 14" xmlns="http://www.w3.org/2000/svg"><g><path d="M 7.7405 2.9037 L 6.9991 3.8235 L 6.2572 2.9037 A 1.2494 1.1722 90 0 1 6.1551 1.4237 l 0.844 -1.4237 L 7.8426 1.4237 A 1.2494 1.1722 90 0 1 7.7405 2.9037 Z M 12.424 7.8116 l -0.0381 0.0297 l 0.0288 0.0266 c -0.3385 2.0417 -1.8663 2.937 -2.7352 3.3805 c -0.9822 0.5008 -2.6795 1.5325 -2.6795 2.746 c 0 -1.2134 -1.6978 -2.2452 -2.68 -2.746 c -0.8694 -0.4435 -2.3972 -1.3389 -2.7352 -3.38 l 0.0293 -0.0271 L 1.5751 7.8111 a 4.8657 4.5653 90 0 1 -0.0591 -0.7959 c 0 -2.6549 1.9791 -3.8236 3.2172 -3.8236 c 0.9348 0 1.6118 0.5961 1.8848 0.8886 a 0.2629 0.2467 90 0 1 0.0318 0.33 l -0.1988 0.3254 a 0.126 0.1182 90 0 1 -0.192 0.0094 C 5.9998 4.3982 5.2237 3.5924 3.8707 4.1307 C 2.8592 4.5341 2.2262 5.5362 2.2262 6.7335 s 0.6941 2.9376 2.511 3.6554 s 2.2619 1.8782 2.2619 1.8782 s 0.4449 -1.1603 2.2619 -1.8782 S 11.7719 7.9308 11.7719 6.7335 s -0.6349 -2.1973 -1.6435 -2.5997 c -1.3539 -0.5393 -2.1305 0.2665 -2.3884 0.6132 a 0.126 0.1182 90 0 1 -0.192 -0.0094 l -0.1988 -0.3254 a 0.2639 0.2476 90 0 1 0.0318 -0.33 C 7.6565 3.7876 8.3315 3.1936 9.2658 3.1936 c 1.2386 0 3.2172 1.1681 3.2172 3.8236 A 4.8678 4.5672 90 0 1 12.424 7.8116 Z M 1.6123 7.8413 l -0.0293 0.0271 c -0.0034 -0.0187 -0.0068 -0.038 -0.0093 -0.0573 Z M 6.2029 9.5664 c -1.5468 -1.4493 -1.9048 -2.4128 -1.5542 -3.2796 s 1.3251 -0.5174 1.3251 -0.5174 c -0.8337 -0.9214 -1.538 -0.7491 -1.9288 -0.5159 a 1.3915 1.3055 90 0 0 -0.5373 0.6247 c -0.3175 0.7158 -0.0278 1.4086 0.4616 1.9969 c -0.3087 0.0271 -0.6901 0.1687 -0.9099 0.6476 c 0 0 0.2271 -0.2483 0.5373 -0.2915 s 0.6203 -0.0609 0.8606 0.1458 h 0 C 5.2539 9.0953 6.2029 9.5664 6.2029 9.5664 Z M 2.3014 3.6491 A 0.873 0.8191 90 0 0 1.5229 2.8896 l -0.9944 -0.0432 l 0.233 0.8745 a 0.9485 0.8899 90 0 0 0.9768 0.6809 l 0.6418 -0.0942 Z M 1.6123 7.8413 l -0.0293 0.0271 l -0.3854 0.3556 a 0.6247 0.5861 90 0 1 -0.7092 0.0489 l -0.4884 -0.3436 l 0.5114 -0.4014 a 0.6247 0.5861 90 0 1 0.695 0 L 1.5751 7.8111 Z M 12.424 7.8116 c -0.0024 0.0187 -0.0059 0.0375 -0.0093 0.0562 l -0.0288 -0.0266 Z M 7.7952 9.5664 c 1.5463 -1.4493 1.9048 -2.4128 1.5537 -3.2796 S 8.0223 5.7678 8.0223 5.7678 c 0.8337 -0.9214 1.538 -0.7491 1.9293 -0.5159 a 1.3915 1.3055 90 0 1 0.5373 0.6247 c 0.317 0.7158 0.0278 1.4086 -0.4616 1.9969 c 0.3087 0.0271 0.6897 0.1687 0.9099 0.6476 c 0 0 -0.2271 -0.2483 -0.5373 -0.2915 s -0.6203 -0.0609 -0.8606 0.1458 h 0 C 8.7442 9.0953 7.7952 9.5664 7.7952 9.5664 Z M 11.6962 3.6491 a 0.874 0.8201 90 0 1 0.7785 -0.7595 l 0.9949 -0.0432 l -0.233 0.8745 a 0.9495 0.8909 90 0 1 -0.9768 0.6809 l -0.6418 -0.0942 Z M 13.9957 7.9308 l -0.4884 0.3436 a 0.6247 0.5861 90 0 1 -0.7087 -0.0489 l -0.3859 -0.3561 l -0.0288 -0.0266 l 0.0381 -0.0297 l 0.3653 -0.2853 a 0.6247 0.5861 90 0 1 0.6955 0 Z" style="fill:#a5c83b"></path></g></svg>